<svg width="200" height="144" viewBox="0 0 200 144" fill="none" xmlns="http://www.w3.org/2000/svg">
<path d="M60.1255 125H59.2449C59.1928 124.747 59.1016 124.524 58.9714 124.332C58.8436 124.141 58.6873 123.98 58.5027 123.849C58.3204 123.717 58.118 123.617 57.8954 123.551C57.6729 123.485 57.4409 123.452 57.1994 123.452C56.7591 123.452 56.3601 123.563 56.0027 123.786C55.6475 124.008 55.3646 124.336 55.1539 124.769C54.9456 125.202 54.8414 125.734 54.8414 126.364C54.8414 126.993 54.9456 127.525 55.1539 127.958C55.3646 128.391 55.6475 128.719 56.0027 128.942C56.3601 129.164 56.7591 129.276 57.1994 129.276C57.4409 129.276 57.6729 129.242 57.8954 129.176C58.118 129.11 58.3204 129.012 58.5027 128.881C58.6873 128.749 58.8436 128.587 58.9714 128.395C59.1016 128.201 59.1928 127.978 59.2449 127.727H60.1255C60.0592 128.099 59.9385 128.432 59.7633 128.725C59.5881 129.019 59.3703 129.268 59.1099 129.474C58.8495 129.678 58.5571 129.833 58.2328 129.94C57.9108 130.046 57.5663 130.099 57.1994 130.099C56.5791 130.099 56.0275 129.948 55.5446 129.645C55.0616 129.342 54.6816 128.911 54.4047 128.352C54.1277 127.794 53.9892 127.131 53.9892 126.364C53.9892 125.597 54.1277 124.934 54.4047 124.375C54.6816 123.816 55.0616 123.385 55.5446 123.082C56.0275 122.779 56.5791 122.628 57.1994 122.628C57.5663 122.628 57.9108 122.681 58.2328 122.788C58.5571 122.894 58.8495 123.05 59.1099 123.256C59.3703 123.46 59.5881 123.709 59.7633 124.002C59.9385 124.293 60.0592 124.626 60.1255 125ZM62.5487 130V122.727H63.4293V129.219H66.81V130H62.5487ZM70.0543 122.727V130H69.1737V122.727H70.0543ZM78.6724 125H77.7917C77.7396 124.747 77.6485 124.524 77.5183 124.332C77.3904 124.141 77.2342 123.98 77.0495 123.849C76.8672 123.717 76.6648 123.617 76.4423 123.551C76.2198 123.485 75.9877 123.452 75.7463 123.452C75.3059 123.452 74.907 123.563 74.5495 123.786C74.1944 124.008 73.9115 124.336 73.7008 124.769C73.4925 125.202 73.3883 125.734 73.3883 126.364C73.3883 126.993 73.4925 127.525 73.7008 127.958C73.9115 128.391 74.1944 128.719 74.5495 128.942C74.907 129.164 75.3059 129.276 75.7463 129.276C75.9877 129.276 76.2198 129.242 76.4423 129.176C76.6648 129.11 76.8672 129.012 77.0495 128.881C77.2342 128.749 77.3904 128.587 77.5183 128.395C77.6485 128.201 77.7396 127.978 77.7917 127.727H78.6724C78.6061 128.099 78.4854 128.432 78.3102 128.725C78.135 129.019 77.9172 129.268 77.6568 129.474C77.3964 129.678 77.104 129.833 76.7797 129.94C76.4577 130.046 76.1132 130.099 75.7463 130.099C75.126 130.099 74.5744 129.948 74.0914 129.645C73.6085 129.342 73.2285 128.911 72.9515 128.352C72.6745 127.794 72.536 127.131 72.536 126.364C72.536 125.597 72.6745 124.934 72.9515 124.375C73.2285 123.816 73.6085 123.385 74.0914 123.082C74.5744 122.779 75.126 122.628 75.7463 122.628C76.1132 122.628 76.4577 122.681 76.7797 122.788C77.104 122.894 77.3964 123.05 77.6568 123.256C77.9172 123.46 78.135 123.709 78.3102 124.002C78.4854 124.293 78.6061 124.626 78.6724 125ZM81.0955 130V122.727H81.9762V126.335H82.0614L85.3285 122.727H86.479L83.4251 126.009L86.479 130H85.4137L82.8853 126.619L81.9762 127.642V130H81.0955ZM92.0337 123.509V122.727H97.4883V123.509H95.2013V130H94.3207V123.509H92.0337ZM105.681 126.364C105.681 127.131 105.543 127.794 105.266 128.352C104.989 128.911 104.609 129.342 104.126 129.645C103.643 129.948 103.091 130.099 102.471 130.099C101.851 130.099 101.299 129.948 100.816 129.645C100.333 129.342 99.9531 128.911 99.6761 128.352C99.3991 127.794 99.2607 127.131 99.2607 126.364C99.2607 125.597 99.3991 124.934 99.6761 124.375C99.9531 123.816 100.333 123.385 100.816 123.082C101.299 122.779 101.851 122.628 102.471 122.628C103.091 122.628 103.643 122.779 104.126 123.082C104.609 123.385 104.989 123.816 105.266 124.375C105.543 124.934 105.681 125.597 105.681 126.364ZM104.829 126.364C104.829 125.734 104.723 125.202 104.513 124.769C104.304 124.336 104.022 124.008 103.664 123.786C103.309 123.563 102.911 123.452 102.471 123.452C102.031 123.452 101.632 123.563 101.274 123.786C100.919 124.008 100.636 124.336 100.425 124.769C100.217 125.202 100.113 125.734 100.113 126.364C100.113 126.993 100.217 127.525 100.425 127.958C100.636 128.391 100.919 128.719 101.274 128.942C101.632 129.164 102.031 129.276 102.471 129.276C102.911 129.276 103.309 129.164 103.664 128.942C104.022 128.719 104.304 128.391 104.513 127.958C104.723 127.525 104.829 126.993 104.829 126.364ZM115.952 124.545C115.909 124.186 115.736 123.906 115.433 123.707C115.13 123.509 114.759 123.409 114.318 123.409C113.996 123.409 113.714 123.461 113.473 123.565C113.234 123.67 113.047 123.813 112.912 123.995C112.779 124.177 112.713 124.384 112.713 124.616C112.713 124.811 112.759 124.978 112.852 125.117C112.946 125.254 113.067 125.369 113.214 125.462C113.361 125.552 113.514 125.626 113.675 125.685C113.836 125.742 113.984 125.788 114.119 125.824L114.858 126.023C115.047 126.072 115.258 126.141 115.49 126.229C115.724 126.316 115.948 126.436 116.161 126.587C116.377 126.737 116.554 126.928 116.694 127.163C116.834 127.397 116.903 127.685 116.903 128.026C116.903 128.419 116.8 128.774 116.594 129.091C116.391 129.408 116.093 129.66 115.7 129.847C115.309 130.034 114.834 130.128 114.276 130.128C113.755 130.128 113.304 130.044 112.923 129.876C112.544 129.708 112.246 129.473 112.028 129.173C111.812 128.872 111.69 128.523 111.662 128.125H112.571C112.595 128.4 112.687 128.627 112.848 128.807C113.011 128.984 113.217 129.117 113.466 129.205C113.717 129.29 113.987 129.332 114.276 129.332C114.612 129.332 114.914 129.278 115.181 129.169C115.449 129.058 115.661 128.904 115.817 128.707C115.973 128.509 116.051 128.277 116.051 128.011C116.051 127.77 115.984 127.573 115.849 127.422C115.714 127.27 115.536 127.147 115.316 127.053C115.096 126.958 114.858 126.875 114.602 126.804L113.707 126.548C113.139 126.385 112.689 126.152 112.358 125.849C112.027 125.546 111.861 125.149 111.861 124.659C111.861 124.252 111.971 123.897 112.191 123.594C112.414 123.288 112.712 123.052 113.086 122.884C113.462 122.713 113.883 122.628 114.347 122.628C114.815 122.628 115.232 122.712 115.597 122.88C115.961 123.046 116.25 123.273 116.463 123.562C116.679 123.851 116.792 124.179 116.804 124.545H115.952ZM118.954 123.509V122.727H124.408V123.509H122.121V130H121.241V123.509H118.954ZM126.216 130H125.293L127.963 122.727H128.872L131.543 130H130.619L128.446 123.878H128.389L126.216 130ZM126.557 127.159H130.279V127.94H126.557V127.159ZM133.676 130V122.727H136.133C136.701 122.727 137.168 122.824 137.532 123.018C137.897 123.21 138.167 123.474 138.342 123.81C138.517 124.147 138.605 124.529 138.605 124.957C138.605 125.386 138.517 125.766 138.342 126.097C138.167 126.429 137.898 126.689 137.536 126.879C137.173 127.066 136.711 127.159 136.147 127.159H134.159V126.364H136.119C136.507 126.364 136.82 126.307 137.056 126.193C137.295 126.08 137.468 125.919 137.575 125.71C137.684 125.5 137.738 125.249 137.738 124.957C137.738 124.666 137.684 124.412 137.575 124.194C137.466 123.976 137.292 123.808 137.053 123.69C136.814 123.569 136.498 123.509 136.105 123.509H134.556V130H133.676ZM137.099 126.733L138.889 130H137.866L136.105 126.733H137.099ZM140.674 123.509V122.727H146.129V123.509H143.842V130H142.961V123.509H140.674Z" fill="#C76383"/>
<path d="M100 100L0 15.7576L100 73.3333L200 15.7576L100 100Z" fill="#EFEFEF"/>
<path d="M100 60.8081L25.5366 0L100 34.1414L182.087 0L100 60.8081Z" fill="#EFEFEF"/>
</svg>
